<?xml version="1.0" standalone="no"?>
<!DOCTYPE svg PUBLIC "-//W3C//DTD SVG 20010904//EN"
 "http://www.w3.org/TR/2001/REC-SVG-20010904/DTD/svg10.dtd">
<svg version="1.0" xmlns="http://www.w3.org/2000/svg"
 width="1536.000000pt" height="1536.000000pt" viewBox="0 0 1536.000000 1536.000000"
 preserveAspectRatio="xMidYMid meet">

<g transform="translate(0.000000,1536.000000) scale(0.100000,-0.100000)"
fill="#000000" stroke="none">
<path d="M7293 9937 c-2 -278 -1 -299 13 -268 13 29 15 78 12 292 -2 162 -7
262 -13 268 -8 8 -11 -81 -12 -292z"/>
<path d="M7271 9564 c-7 -21 -22 -51 -33 -66 -30 -44 -207 -155 -788 -499 -96
-57 -179 -106 -185 -108 -5 -2 -28 -16 -50 -31 -22 -14 -152 -91 -290 -170
-137 -78 -286 -164 -330 -190 -79 -47 -252 -143 -310 -174 l-30 -15 26 -1 c14
0 44 12 65 28 21 15 62 38 89 51 28 13 75 40 105 60 30 19 78 46 105 59 28 14
59 32 70 42 11 10 70 44 130 75 61 32 123 67 140 79 16 12 50 32 76 46 85 46
151 85 201 118 28 18 76 46 107 63 31 17 63 37 71 44 8 7 51 31 95 55 44 23
94 53 112 66 17 13 35 24 39 24 4 0 22 11 39 24 18 14 60 39 93 56 34 17 64
35 67 41 4 5 37 25 75 44 38 19 71 39 74 44 4 5 36 26 72 46 36 20 81 50 100
67 38 34 87 120 82 145 -2 9 -9 -2 -17 -23z"/>
<path d="M10010 9474 c0 -39 -5 -51 -37 -83 -31 -31 -164 -121 -179 -121 -3 0
-68 -39 -284 -169 -97 -59 -165 -99 -270 -160 -69 -40 -172 -101 -230 -135
-58 -34 -166 -98 -240 -141 -74 -43 -184 -108 -245 -145 -110 -67 -587 -351
-850 -505 -77 -45 -156 -92 -175 -103 -19 -11 -87 -51 -150 -88 -63 -37 -128
-75 -145 -85 -16 -10 -50 -30 -75 -44 -25 -14 -58 -33 -75 -43 -16 -10 -55
-33 -85 -50 -30 -18 -62 -37 -70 -42 -33 -21 -305 -182 -455 -270 -88 -51
-236 -139 -330 -194 -93 -56 -177 -104 -186 -108 -8 -3 -47 -25 -85 -49 -38
-23 -82 -50 -99 -59 -34 -19 -312 -186 -335 -201 -8 -5 -30 -16 -47 -24 -18
-9 -33 -17 -33 -20 0 -13 41 -2 73 19 19 13 71 43 114 66 43 23 92 53 110 66
17 13 35 24 40 24 4 0 22 11 38 25 17 14 59 39 95 56 36 17 85 45 110 63 25
17 63 40 85 51 22 11 54 30 71 43 17 12 67 41 110 64 44 22 97 54 118 69 22
16 44 29 50 29 5 0 19 9 30 19 12 11 62 41 111 66 50 26 99 55 111 66 11 10
24 19 30 19 5 0 43 21 84 48 41 26 104 62 140 81 36 19 79 44 97 57 17 13 35
24 39 24 4 0 23 12 43 27 20 16 57 38 83 50 25 12 73 38 105 59 32 21 76 47
98 58 22 11 56 31 75 46 19 14 58 36 85 49 28 13 59 32 70 41 11 10 60 39 110
64 49 26 98 55 110 65 11 10 54 35 95 56 41 21 89 49 106 61 17 13 35 24 39
24 4 0 22 11 39 23 17 13 67 43 111 66 44 24 94 53 110 65 17 12 38 25 47 29
10 3 44 23 75 43 32 21 83 51 113 67 30 16 64 37 75 46 11 9 38 25 60 36 22
11 54 29 70 41 17 12 66 41 110 64 44 24 101 57 126 74 52 35 129 79 198 115
25 12 62 36 82 52 20 16 40 29 43 29 3 0 47 24 97 53 50 28 114 65 142 81 29
16 66 39 84 52 17 13 34 24 37 24 3 0 51 27 106 60 55 33 104 60 108 60 4 0
23 13 42 30 19 16 40 29 46 30 6 0 30 19 52 42 39 39 42 46 42 95 0 29 -2 53
-5 53 -3 0 -5 -21 -5 -46z"/>
<path d="M10158 8753 c7 -3 16 -2 19 1 4 3 -2 6 -13 5 -11 0 -14 -3 -6 -6z"/>
<path d="M10292 8565 c0 -16 2 -22 5 -12 2 9 2 23 0 30 -3 6 -5 -1 -5 -18z"/>
<path d="M5118 8340 c18 -17 40 -30 50 -30 11 0 7 6 -14 19 -18 11 -35 24 -38
30 -4 6 -13 11 -19 11 -7 0 3 -14 21 -30z"/>
<path d="M10243 8200 c0 -30 2 -43 4 -27 2 15 2 39 0 55 -2 15 -4 2 -4 -28z"/>
<path d="M10281 8210 c-9 -108 -21 -132 -93 -192 -51 -42 -178 -128 -190 -128
-3 0 -71 -40 -150 -89 -79 -49 -166 -101 -193 -115 -28 -15 -72 -41 -100 -57
-27 -17 -71 -43 -97 -56 -27 -14 -48 -29 -48 -34 0 -5 2 -9 5 -9 9 0 141 73
185 103 25 17 57 39 72 49 15 10 64 37 110 60 46 23 94 53 108 65 14 13 30 23
35 23 6 0 40 19 76 43 36 23 86 53 113 66 58 29 131 102 157 159 14 31 19 58
16 95 -2 40 -4 44 -6 17z"/>
<path d="M10150 8070 c0 -5 5 -12 10 -15 6 -3 10 -2 10 4 0 6 8 8 18 4 9 -3
14 -3 11 1 -10 11 -49 16 -49 6z"/>
<path d="M10130 8020 c0 -5 5 -10 10 -10 6 0 10 5 10 10 0 6 -4 10 -10 10 -5
0 -10 -4 -10 -10z"/>
<path d="M10060 8001 c0 -5 9 -11 19 -14 14 -3 18 -1 14 9 -6 15 -33 19 -33 5z"/>
<path d="M10020 7986 c0 -2 7 -7 16 -10 8 -3 12 -2 9 4 -6 10 -25 14 -25 6z"/>
<path d="M10010 7949 c0 -5 5 -7 10 -4 6 3 10 8 10 11 0 2 -4 4 -10 4 -5 0
-10 -5 -10 -11z"/>
<path d="M9935 7941 c-3 -5 -1 -12 5 -16 5 -3 10 1 10 9 0 18 -6 21 -15 7z"/>
<path d="M9896 7914 c-7 -18 10 -44 27 -44 6 0 2 7 -9 16 -13 11 -15 17 -6 20
14 6 16 24 3 24 -5 0 -12 -7 -15 -16z"/>
<path d="M9978 7923 c6 -2 18 -2 25 0 6 3 1 5 -13 5 -14 0 -19 -2 -12 -5z"/>
<path d="M9751 7834 c13 -16 29 -19 29 -5 0 5 -9 11 -21 14 -16 4 -18 3 -8 -9z"/>
<path d="M9828 7823 c7 -3 16 -2 19 1 4 3 -2 6 -13 5 -11 0 -14 -3 -6 -6z"/>
<path d="M9590 7780 c0 -5 5 -10 11 -10 5 0 7 5 4 10 -3 6 -8 10 -11 10 -2 0
-4 -4 -4 -10z"/>
<path d="M9550 7759 c0 -5 5 -7 10 -4 6 3 10 8 10 11 0 2 -4 4 -10 4 -5 0 -10
-5 -10 -11z"/>
<path d="M9640 7742 c0 -12 19 -26 26 -19 2 2 -2 10 -11 17 -9 8 -15 8 -15 2z"/>
<path d="M9591 7694 c0 -11 3 -14 6 -6 3 7 2 16 -1 19 -3 4 -6 -2 -5 -13z"/>
<path d="M9510 7680 c-9 -6 -10 -10 -3 -10 6 0 15 5 18 10 8 12 4 12 -15 0z"/>
<path d="M9560 7680 c0 -5 5 -10 11 -10 5 0 7 5 4 10 -3 6 -8 10 -11 10 -2 0
-4 -4 -4 -10z"/>
<path d="M9525 7660 c-3 -6 1 -7 9 -4 18 7 21 14 7 14 -6 0 -13 -4 -16 -10z"/>
<path d="M9295 7477 c-49 -29 -101 -59 -115 -68 -20 -13 -237 -141 -327 -194
-55 -32 -104 -67 -100 -71 6 -6 156 76 194 105 14 12 31 21 38 21 6 0 20 9 29
19 10 11 43 32 74 47 32 15 66 35 77 45 11 9 56 36 101 60 83 45 147 89 129
88 -5 0 -50 -24 -100 -52z"/>
<path d="M9240 7500 c0 -5 5 -10 10 -10 6 0 10 5 10 10 0 6 -4 10 -10 10 -5 0
-10 -4 -10 -10z"/>
<path d="M9205 7480 c-3 -5 -2 -10 4 -10 5 0 13 5 16 10 3 6 2 10 -4 10 -5 0
-13 -4 -16 -10z"/>
<path d="M9170 7444 c0 -14 3 -14 15 -4 8 7 15 14 15 16 0 2 -7 4 -15 4 -8 0
-15 -7 -15 -16z"/>
<path d="M9110 7419 c0 -5 -12 -12 -26 -15 -19 -5 -23 -9 -13 -18 8 -8 13 -8
16 2 3 6 11 12 19 12 8 0 14 5 14 11 0 5 4 8 8 5 4 -2 14 -1 21 3 9 6 4 9 -13
9 -14 0 -26 -4 -26 -9z"/>
<path d="M8585 7054 c-77 -47 -151 -90 -165 -97 -14 -7 -43 -24 -65 -38 -22
-14 -71 -43 -110 -64 -38 -21 -81 -46 -95 -55 -14 -10 -86 -52 -160 -95 -74
-42 -156 -92 -183 -111 -26 -19 -49 -34 -52 -34 -3 0 -22 -11 -43 -23 -20 -13
-57 -35 -82 -49 -86 -48 -215 -128 -236 -145 -30 -26 -76 -110 -72 -130 2 -12
11 -3 26 29 26 52 112 131 177 163 22 11 56 31 75 45 19 14 53 34 75 44 22 11
54 29 70 41 35 25 157 98 229 138 28 16 74 44 101 62 28 18 75 45 105 60 30
15 69 37 85 49 17 12 55 34 85 50 30 16 64 36 75 45 11 9 43 27 70 40 28 13
59 32 70 42 11 10 47 32 80 49 58 31 110 71 90 69 -6 0 -73 -39 -150 -85z"/>
<path d="M5074 7020 c0 -58 1 -81 3 -52 2 28 2 76 0 105 -2 28 -3 5 -3 -53z"/>
<path d="M8474 7024 c-18 -14 -18 -15 4 -4 12 6 22 13 22 15 0 8 -5 6 -26 -11z"/>
<path d="M10112 7013 c-6 -2 -10 -8 -8 -11 2 -4 -3 -14 -12 -22 -14 -13 -15
-12 -9 2 5 14 2 15 -16 8 -12 -4 -21 -13 -20 -18 1 -5 -7 -7 -19 -4 -14 3 -19
1 -14 -6 4 -7 2 -12 -4 -12 -6 0 -10 -6 -8 -14 3 -15 1 -16 -29 -16 -15 0 -14
2 3 15 34 26 0 16 -41 -12 -38 -26 -88 -56 -145 -85 -14 -7 -31 -18 -38 -25
-7 -7 -18 -13 -24 -13 -6 0 -6 -6 2 -15 14 -16 0 -21 -16 -5 -6 6 -25 0 -53
-17 -33 -19 -40 -28 -30 -35 11 -7 9 -8 -5 -4 -12 4 -36 -4 -65 -23 -49 -30
-151 -88 -188 -105 -13 -6 -23 -17 -23 -23 0 -7 -8 -13 -18 -13 -10 0 -22 -4
-27 -9 -6 -5 -46 -28 -90 -52 -44 -23 -99 -54 -123 -70 -24 -16 -46 -29 -49
-29 -3 0 -22 -12 -42 -27 -20 -15 -61 -40 -93 -55 -31 -16 -60 -33 -64 -40 -5
-7 -2 -8 7 -3 8 4 5 -1 -6 -12 -13 -13 -24 -17 -31 -11 -8 5 -14 3 -18 -7 -4
-11 -2 -14 6 -9 7 4 8 3 4 -5 -6 -9 -11 -9 -22 0 -8 7 -14 7 -14 1 0 -5 -11
-13 -25 -16 -26 -7 -145 -74 -145 -82 0 -2 11 -2 24 0 18 3 23 1 19 -10 -6
-17 -9 -17 -33 -4 -19 10 -66 -9 -120 -50 -21 -16 -23 -21 -11 -32 10 -10 12
-10 7 0 -4 7 -2 12 6 13 7 1 22 2 33 2 11 1 20 7 20 12 0 6 -4 9 -8 7 -5 -1
-6 2 -2 8 7 11 45 14 45 3 0 -5 -14 -23 -31 -42 -25 -26 -33 -31 -40 -20 -7
12 -9 12 -9 0 0 -8 -6 -11 -16 -7 -8 3 -13 2 -10 -3 3 -5 -10 -12 -29 -15 -32
-6 -41 -18 -36 -49 1 -4 -7 -2 -17 4 -28 17 -82 -13 -75 -42 4 -16 8 -17 14
-7 13 19 11 0 -2 -24 l-11 -20 -15 21 c-8 12 -19 19 -24 16 -5 -4 -14 -3 -19
0 -15 9 7 35 23 29 7 -2 24 7 40 21 15 14 27 23 27 19 0 -3 7 -1 15 6 8 6 19
9 25 5 5 -3 10 0 10 7 0 7 13 19 28 26 16 7 29 19 29 26 0 13 -5 12 -31 -1
-17 -9 -44 -25 -61 -37 -34 -24 -49 -34 -96 -60 -53 -29 -127 -106 -150 -156
-21 -43 -22 -61 -25 -370 -2 -179 0 -331 5 -338 13 -22 84 -27 117 -9 16 9 23
16 17 17 -25 0 -13 20 12 20 19 0 23 -4 18 -17 -4 -9 -2 -14 3 -12 5 3 21 11
36 18 35 18 45 41 15 33 -21 -5 -21 -5 -5 11 9 9 21 17 27 17 6 0 32 14 58 30
26 17 54 30 62 30 9 -1 -5 -12 -31 -25 -26 -14 -49 -29 -53 -35 -8 -13 -4 -13
36 5 49 21 68 38 66 61 -1 13 3 18 16 16 9 -2 17 2 17 8 0 5 5 10 11 10 5 0 7
-4 4 -10 -11 -17 9 -11 76 22 65 32 113 68 91 68 -7 0 -12 5 -12 11 0 7 10 9
25 5 17 -4 41 2 75 19 50 25 60 38 39 51 -13 8 8 24 31 23 10 0 11 -2 3 -6
-16 -6 -17 -23 -2 -23 6 0 22 9 36 20 25 19 25 20 4 20 -11 0 -21 5 -21 10 0
6 8 10 18 10 9 0 28 9 42 20 27 21 40 25 40 12 0 -4 -12 -15 -27 -24 -16 -10
-22 -18 -15 -18 15 0 157 75 192 102 14 11 40 30 59 44 31 21 32 24 12 24 -12
0 -19 4 -16 10 3 6 23 10 44 10 26 0 62 13 111 40 40 22 75 40 77 40 3 0 42
24 87 54 45 30 108 68 139 85 89 48 101 55 122 72 23 18 192 117 245 144 19
10 49 29 66 41 17 13 34 24 39 24 14 0 96 72 90 78 -3 4 -10 0 -15 -8 -6 -8
-10 -10 -10 -4 0 17 60 75 71 69 5 -4 9 -3 8 2 -4 22 2 32 16 27 15 -6 20 14
16 64 -1 13 3 21 10 20 8 -2 16 13 20 37 8 44 1 115 -12 115 -4 0 -4 13 1 29
4 16 5 32 2 36 -4 4 -7 70 -8 148 0 103 -5 152 -16 177 -17 41 -43 65 -58 55
-6 -4 -9 -1 -8 5 3 12 -76 23 -100 13z m-238 -157 c-6 -16 -44 -29 -44 -15 0
5 7 9 15 9 8 0 15 5 15 10 0 6 4 10 10 10 5 0 7 -6 4 -14z m-60 -31 c-7 -16
-24 -21 -24 -6 0 8 7 13 27 20 1 1 0 -6 -3 -14z m-314 -195 c0 -5 -4 -10 -9
-10 -6 0 -13 5 -16 10 -3 6 1 10 9 10 9 0 16 -4 16 -10z m-30 -24 c0 -9 -30
-14 -35 -6 -4 6 3 10 14 10 12 0 21 -2 21 -4z m-207 -123 c-7 -2 -19 -2 -25 0
-7 3 -2 5 12 5 14 0 19 -2 13 -5z m-159 -94 c-3 -5 -10 -7 -15 -3 -5 3 -7 10
-3 15 3 5 10 7 15 3 5 -3 7 -10 3 -15z m-153 -106 c-8 -15 -10 -15 -11 -2 0
17 10 32 18 25 2 -3 -1 -13 -7 -23z m-57 -45 c-3 -4 -9 -8 -15 -8 -5 0 -9 4
-9 8 0 5 7 9 15 9 8 0 12 -4 9 -9z m-165 -51 c-2 -1 -13 -9 -24 -17 -19 -14
-19 -14 -6 3 7 9 18 17 24 17 6 0 8 -1 6 -3z m1371 -16 c0 -5 -7 -11 -14 -14
-10 -4 -13 -1 -9 9 6 15 23 19 23 5z m-70 -40 c0 -5 -7 -12 -16 -15 -14 -5
-15 -4 -4 9 14 17 20 19 20 6z m-54 -36 c-11 -8 -24 -15 -30 -15 -5 0 -1 7 10
15 10 8 24 14 29 14 6 0 1 -6 -9 -14z m-1351 -5 c-3 -5 -14 -10 -23 -9 -14 0
-13 2 3 9 27 11 27 11 20 0z m1285 -34 c0 -8 -73 -47 -77 -42 -3 3 10 14 28
25 33 20 49 26 49 17z m-100 -60 c0 -7 -93 -57 -97 -52 -3 2 15 16 39 30 41
25 58 31 58 22z m-1366 -31 c-4 -8 -11 -12 -16 -9 -6 4 -5 10 3 15 19 12 19
11 13 -6z m1226 -55 c-14 -10 -27 -17 -29 -14 -6 5 31 33 44 33 6 1 -1 -8 -15
-19z m-1440 -40 c0 -5 -5 -10 -11 -10 -5 0 -7 5 -4 10 3 6 8 10 11 10 2 0 4
-4 4 -10z m1380 5 c0 -2 -17 -14 -37 -25 -21 -11 -51 -29 -68 -40 -16 -10 -34
-19 -39 -19 -16 -2 16 28 37 35 12 4 38 17 57 30 33 23 50 29 50 19z m-1316
-20 c-4 -8 -10 -12 -15 -9 -11 6 -2 24 11 24 5 0 7 -7 4 -15z m1121 -95 c-3
-5 -11 -10 -16 -10 -6 0 -7 5 -4 10 3 6 11 10 16 10 6 0 7 -4 4 -10z m-255
-144 c0 -2 -12 -11 -27 -20 l-28 -17 24 20 c23 21 31 25 31 17z m-70 -40 c0
-8 -101 -68 -106 -63 -3 3 18 19 48 36 56 32 58 33 58 27z m-302 -182 c-9 -9
-22 -14 -30 -11 -8 3 -4 8 12 15 35 15 37 14 18 -4z m-53 -34 c-3 -5 -11 -10
-16 -10 -6 0 -7 5 -4 10 3 6 11 10 16 10 6 0 7 -4 4 -10z m-81 -44 c-5 -14
-53 -40 -61 -33 -3 4 56 46 64 47 1 0 0 -6 -3 -14z m-84 -51 c-7 -8 -17 -15
-22 -15 -6 0 -5 7 2 15 7 8 17 15 22 15 6 0 5 -7 -2 -15z"/>
<path d="M5071 6786 c-1 -29 2 -37 10 -29 8 8 8 19 1 40 -10 28 -10 28 -11
-11z"/>
<path d="M5131 6652 c45 -33 82 -47 126 -46 24 1 49 6 55 12 9 9 -5 12 -57 12
-52 0 -78 5 -103 20 -40 25 -53 26 -21 2z"/>
<path d="M7308 6143 c-1 -27 -1 -106 2 -178 l6 -130 2 178 c2 171 -2 229 -10
130z"/>
<path d="M7255 6101 c-3 -5 -1 -12 5 -16 5 -3 10 1 10 9 0 18 -6 21 -15 7z"/>
<path d="M7261 6054 c0 -11 3 -14 6 -6 3 7 2 16 -1 19 -3 4 -6 -2 -5 -13z"/>
<path d="M7246 6010 c-17 -6 -18 -7 -3 -13 9 -3 19 -2 23 4 9 15 2 18 -20 9z"/>
<path d="M7251 5944 c0 -11 3 -14 6 -6 3 7 2 16 -1 19 -3 4 -6 -2 -5 -13z"/>
<path d="M7245 5810 c-4 -21 -4 -44 0 -50 3 -6 0 -7 -9 -4 -10 4 -16 1 -16 -9
0 -11 -7 -14 -24 -11 -22 4 -25 1 -23 -23 2 -25 -2 -28 -28 -28 -56 -1 -69
-21 -35 -55 20 -20 29 -66 10 -55 -6 4 -8 11 -5 16 8 12 -27 -2 -42 -17 -7 -7
-10 -21 -6 -31 5 -14 3 -16 -7 -6 -7 6 -19 9 -26 6 -8 -3 -14 -1 -14 3 0 14
17 36 23 32 4 -1 15 5 26 14 11 9 22 13 26 10 3 -4 3 2 -1 13 -10 27 -33 49
-42 41 -3 -4 0 -11 7 -16 12 -7 12 -11 -2 -24 -8 -9 -18 -16 -22 -16 -11 0
-35 -28 -35 -41 0 -6 8 -18 18 -25 12 -10 13 -13 3 -14 -9 0 -6 -7 8 -19 13
-11 20 -25 16 -31 -5 -7 -17 0 -34 19 -32 36 -45 40 -36 11 4 -11 2 -20 -4
-20 -6 0 -11 -8 -11 -17 0 -13 3 -14 12 -5 16 16 28 15 28 -3 0 -22 -66 -20
-79 3 -10 16 -12 16 -26 -2 -15 -20 -15 -20 -15 0 0 14 -3 15 -9 6 -4 -7 -21
-17 -37 -21 -25 -7 -26 -10 -10 -16 10 -5 21 -3 25 3 9 14 70 10 96 -7 18 -11
17 -12 -12 -7 -18 3 -35 1 -38 -4 -4 -6 -11 -8 -16 -5 -5 4 -9 -1 -9 -9 0 -19
-5 -20 -32 -5 -26 14 -45 -3 -23 -21 23 -19 19 -43 -5 -35 -17 5 -20 2 -20
-27 0 -25 -3 -29 -10 -18 -5 8 -10 27 -10 43 0 15 -4 27 -10 27 -5 0 -10 -11
-10 -24 0 -13 -2 -31 -5 -38 -3 -8 4 -24 16 -37 26 -27 22 -33 -16 -23 -18 5
-25 11 -17 16 12 7 9 43 -10 104 -10 34 -34 46 -25 12 3 -13 0 -20 -9 -20 -8
0 -14 -5 -14 -11 0 -7 11 -9 28 -6 26 5 26 4 -11 -26 -20 -18 -37 -37 -37 -43
0 -8 -15 -10 -45 -6 -30 3 -45 1 -45 -7 0 -6 7 -11 15 -11 8 0 15 -4 15 -10 0
-5 -3 -10 -7 -10 -13 0 -82 26 -89 33 -14 13 -33 7 -27 -8 3 -9 8 -13 11 -11
3 3 11 1 18 -5 8 -6 21 -9 29 -5 8 3 15 0 15 -7 0 -7 8 -21 17 -32 12 -15 14
-16 10 -3 -4 12 -2 15 9 11 8 -3 13 -11 11 -17 -7 -17 30 -59 44 -50 7 4 17 1
23 -7 6 -8 23 -20 39 -26 15 -7 27 -17 27 -23 0 -5 16 -10 37 -10 20 0 34 -3
30 -6 -9 -10 26 -44 46 -44 10 0 16 -4 13 -9 -4 -5 3 -7 14 -4 14 4 20 0 20
-10 0 -9 10 -21 21 -28 15 -8 19 -8 15 0 -4 6 -3 11 3 11 5 0 14 -12 19 -27 6
-16 11 -22 11 -15 1 17 21 15 21 -3 0 -8 7 -15 15 -15 8 0 23 -8 33 -17 10
-10 38 -28 62 -41 25 -12 52 -27 60 -32 22 -13 53 -23 68 -23 33 1 40 5 45 23
3 11 13 20 22 20 10 0 13 -5 9 -12 -6 -10 -4 -10 8 0 19 15 32 58 22 74 -4 6
-13 -4 -21 -22 -7 -18 -15 -31 -17 -29 -3 2 -1 36 4 74 5 38 7 72 4 76 -2 4
-6 182 -9 396 -2 213 -4 403 -5 421 0 45 -17 40 -25 -8z m-95 -160 c0 -5 -7
-10 -15 -10 -8 0 -15 5 -15 10 0 6 7 10 15 10 8 0 15 -4 15 -10z m100 -45 c0
-9 -9 -15 -22 -14 -17 1 -19 2 -5 6 9 2 17 9 17 14 0 5 2 9 5 9 3 0 5 -7 5
-15z m-80 -15 c0 -5 -4 -10 -10 -10 -5 0 -10 5 -10 10 0 6 5 10 10 10 6 0 10
-4 10 -10z m73 -75 c-3 -9 -8 -14 -10 -11 -3 3 -2 9 2 15 9 16 15 13 8 -4z
m-148 -14 c-3 -6 -11 -8 -17 -5 -6 4 -5 9 3 15 16 10 23 4 14 -10z m-5 -37 c0
-8 -19 -13 -24 -6 -3 5 1 9 9 9 8 0 15 -2 15 -3z m-90 -44 c0 -5 -7 -10 -15
-10 -8 0 -15 5 -15 10 0 6 7 10 15 10 8 0 15 -4 15 -10z m47 -19 c9 8 13 8 13
1 0 -13 -21 -21 -37 -14 -7 2 -13 9 -13 15 0 8 4 7 12 -1 8 -8 15 -9 25 -1z
m-173 -73 c3 -16 2 -28 -3 -28 -13 0 -24 37 -16 51 9 13 11 11 19 -23z m-174
-58 c0 -5 -4 -10 -10 -10 -5 0 -10 5 -10 10 0 6 5 10 10 10 6 0 10 -4 10 -10z
m139 7 c-2 -1 -12 -9 -21 -16 -15 -12 -18 -11 -18 3 0 10 8 16 22 16 12 0 19
-1 17 -3z m-202 -43 c-3 -3 -12 -4 -19 -1 -8 3 -5 6 6 6 11 1 17 -2 13 -5z
m133 -74 c0 -5 -7 -10 -15 -10 -8 0 -15 5 -15 10 0 6 7 10 15 10 8 0 15 -4 15
-10z"/>
<path d="M7311 5814 c0 -11 3 -14 6 -6 3 7 2 16 -1 19 -3 4 -6 -2 -5 -13z"/>
<path d="M7110 5811 c0 -5 -8 -12 -17 -15 -11 -3 -8 -4 6 -3 24 2 44 27 22 27
-6 0 -11 -4 -11 -9z"/>
<path d="M7180 5769 c0 -16 17 -18 35 -5 17 13 17 14 -8 14 -15 0 -27 -4 -27
-9z"/>
<path d="M5460 5721 c24 -20 40 -26 40 -16 0 2 -15 12 -32 20 l-33 16 25 -20z"/>
<path d="M7072 5715 c0 -16 2 -22 5 -12 2 9 2 23 0 30 -3 6 -5 -1 -5 -18z"/>
<path d="M5524 5686 c11 -9 24 -16 30 -16 12 0 7 5 -24 19 -24 11 -24 11 -6
-3z"/>
<path d="M5570 5666 c0 -3 9 -10 20 -16 11 -6 20 -8 20 -6 0 3 -9 10 -20 16
-11 6 -20 8 -20 6z"/>
<path d="M6960 5661 c0 -10 34 -21 65 -21 16 0 14 3 -9 15 -32 17 -56 19 -56
6z"/>
<path d="M5734 5565 c11 -8 24 -15 30 -15 5 0 1 7 -10 15 -10 8 -23 14 -29 14
-5 0 -1 -6 9 -14z"/>
<path d="M6912 5558 c5 -15 28 -18 29 -3 0 6 -7 12 -17 13 -10 3 -15 -1 -12
-10z"/>
<path d="M6881 5514 c0 -11 3 -14 6 -6 3 7 2 16 -1 19 -3 4 -6 -2 -5 -13z"/>
<path d="M6628 5513 c7 -3 16 -2 19 1 4 3 -2 6 -13 5 -11 0 -14 -3 -6 -6z"/>
<path d="M6930 5505 c12 -15 30 -12 30 6 0 5 -10 9 -21 9 -18 0 -19 -2 -9 -15z"/>
<path d="M6760 5470 c0 -5 7 -10 15 -10 8 0 15 5 15 10 0 6 -7 10 -15 10 -8 0
-15 -4 -15 -10z"/>
<path d="M5924 5461 c4 -6 30 -22 59 -36 29 -14 43 -18 32 -9 -29 23 -98 57
-91 45z"/>
<path d="M6610 5441 c16 -5 24 -14 23 -25 -1 -11 2 -15 8 -9 17 17 -2 43 -30
42 l-26 -1 25 -7z"/>
<path d="M6765 5430 c3 -5 13 -10 21 -10 8 0 14 5 14 10 0 6 -9 10 -21 10 -11
0 -17 -4 -14 -10z"/>
<path d="M6557 5423 c-12 -12 -7 -22 8 -17 8 4 15 10 15 15 0 11 -14 12 -23 2z"/>
<path d="M6760 5384 c0 -8 5 -12 10 -9 6 3 10 10 10 16 0 5 -4 9 -10 9 -5 0
-10 -7 -10 -16z"/>
<path d="M6650 5380 c0 -5 5 -10 10 -10 6 0 10 5 10 10 0 6 -4 10 -10 10 -5 0
-10 -4 -10 -10z"/>
<path d="M6626 5338 c2 -16 -1 -28 -6 -28 -5 0 -8 -9 -7 -20 1 -11 7 -20 13
-20 7 0 10 8 7 20 -4 14 0 20 11 20 9 0 16 5 16 10 0 6 -6 10 -14 10 -8 0 -17
8 -19 18 -2 9 -3 5 -1 -10z"/>
<path d="M6150 5333 c0 -10 91 -55 98 -49 2 3 -19 16 -47 30 -28 15 -51 23
-51 19z"/>
<path d="M6396 5327 c3 -10 9 -15 12 -12 3 3 0 11 -7 18 -10 9 -11 8 -5 -6z"/>
<path d="M6445 5320 c-3 -5 -1 -10 4 -10 6 0 11 5 11 10 0 6 -2 10 -4 10 -3 0
-8 -4 -11 -10z"/>
<path d="M6513 5286 c9 -7 14 -16 10 -19 -3 -4 -2 -7 3 -7 11 0 52 29 44 30
-3 1 -21 3 -40 5 -30 3 -32 1 -17 -9z"/>
<path d="M6580 5290 c0 -5 5 -10 10 -10 6 0 10 5 10 10 0 6 -4 10 -10 10 -5 0
-10 -4 -10 -10z"/>
<path d="M6274 5266 c11 -9 24 -16 30 -16 12 0 7 5 -24 19 -24 11 -24 11 -6
-3z"/>
<path d="M6410 5274 c0 -1 6 -7 14 -13 10 -8 16 -8 25 3 10 11 7 14 -14 12
-14 0 -25 -2 -25 -2z"/>
<path d="M6426 5175 c25 -19 40 -19 24 0 -7 8 -20 15 -28 15 -13 0 -12 -3 4
-15z"/>
<path d="M7312 5150 c0 -14 2 -19 5 -12 2 6 2 18 0 25 -3 6 -5 1 -5 -13z"/>
<path d="M6490 5140 c8 -5 20 -10 25 -10 6 0 3 5 -5 10 -8 5 -19 10 -25 10 -5
0 -3 -5 5 -10z"/>
<path d="M7300 5100 c0 -5 5 -10 10 -10 6 0 10 5 10 10 0 6 -4 10 -10 10 -5 0
-10 -4 -10 -10z"/>
<path d="M6689 5030 c13 -11 27 -20 32 -20 18 0 8 10 -23 25 l-33 16 24 -21z"/>
<path d="M6754 4996 c11 -9 24 -16 30 -16 12 0 7 5 -24 19 -24 11 -24 11 -6
-3z"/>
<path d="M6975 4870 c3 -5 8 -10 11 -10 2 0 4 5 4 10 0 6 -5 10 -11 10 -5 0
-7 -4 -4 -10z"/>
</g>
</svg>
